IKResults
version=1
nRows=6
nColumns=67
inDegrees=yes

Units are S.I. units (second, meters, Newtons, ...)
Angles are in degrees.

endheader
time	pelvis_tilt	pelvis_list	pelvis_rotation	pelvis_tx	pelvis_ty	pelvis_tz	hip_flexion_r	hip_adduction_r	hip_rotation_r	knee_angle_r	knee_rot_r	knee_adduc_r	ankle_angle_r	ankle_rot_r	ankle_add_r	subtalar_angle_r	mtp_angle_r	mtp_rot_r	mtp_add_r	hip_flexion_l	hip_adduction_l	hip_rotation_l	knee_angle_l	knee_rot_l	knee_adduc_l	ankle_angle_l	ankle_rot_l	ankle_add_l	subtalar_angle_l	mtp_angle_l	mtp_rot_l	mtp_add_l	lumbar_extension	lumbar_bending	lumbar_rotation	neck_flexion	neck_lateral_bending	neck_rotation	arm_flex_r	arm_add_r	arm_rot_r	elbow_flex_r	elbow_rot_r	elbow_add_r	pro_sup_r	wrist_flex_r	wrist_adduc_r	wrist_rot_r	wrist_dev_r	hand_finger_flex_r	hand_finger_adduc_r	hand_finger_rot_r	arm_flex_l	arm_add_l	arm_rot_l	elbow_flex_l	elbow_rot_l	elbow_add_l	pro_sup_l	wrist_flex_l	wrist_adduc_l	wrist_rot_l	wrist_dev_l	hand_finger_flex_l	hand_finger_adduc_l	hand_finger_rot_l
      0.81000000	     17.19789417	      6.10391067	      0.18369008	     -1.33728290	      0.76330238	      0.90690424	     10.37204469	     -7.62891432	      2.09868171	    -35.25680889	     -5.00000000	      4.67734218	      4.66453597	     -5.00000000	      0.67430393	     -6.39766131	     27.45180869	     -2.00000000	      1.83354217	    -27.65687207	     11.32286301	      0.51341949	     -3.34634613	      5.00000000	      2.66303533	     11.56274900	     -4.67006362	      5.00000000	     -3.99210762	     15.66596856	      1.86621330	      2.00000000	    -30.37346149	     -9.76275604	     -4.94690482	      0.00000000	      0.00000000	      0.00000000	      0.00000000	      0.00000000	      0.00000000	      0.00000000	      0.00000000	      0.00000000	     -0.00042092	      0.00000000	      0.00000000	      0.00000000	      0.00000000	      0.00000000	      0.00000000	      0.00000000	      0.00000000	      0.00000000	      0.00000000	      0.00000000	      0.00000000	      0.00000000	      0.00000000	      0.00000000	      0.00000000	      0.00000000	      0.00000000	      0.00000000	      0.00000000	      0.00000000
      0.81500000	     17.04754519	      6.41543458	      0.22099185	     -1.33143239	      0.76203207	      0.90690959	     10.71246063	     -7.86171089	      2.12584177	    -33.17026074	     -5.00000000	      4.48150803	      4.70595066	     -5.00000000	      0.71947930	     -6.46928761	     27.42896688	     -2.00000000	      1.82478026	    -28.04429500	     11.53524329	      0.54766744	     -3.29633084	      5.00000000	      2.58023792	     11.77757036	     -4.78225949	      5.00000000	     -3.95224229	     15.66869157	      1.85894459	      2.00000000	    -30.38160028	    -10.09537348	     -5.05151010	      0.00000000	      0.00000000	      0.00000000	      0.00000000	      0.00000000	      0.00000000	      0.00000000	      0.00000000	      0.00000000	     -0.00042092	      0.00000000	      0.00000000	      0.00000000	      0.00000000	      0.00000000	      0.00000000	      0.00000000	      0.00000000	      0.00000000	      0.00000000	      0.00000000	      0.00000000	      0.00000000	      0.00000000	      0.00000000	      0.00000000	      0.00000000	      0.00000000	      0.00000000	      0.00000000	      0.00000000
      0.82000000	     16.90650337	      6.74587357	      0.29457778	     -1.32555642	      0.76073536	      0.90691948	     10.97306645	     -8.11305712	      2.11896005	    -30.99240820	     -5.00000000	      4.26699409	      4.69202788	     -5.00000000	      0.76079510	     -6.54958038	     27.40241323	     -2.00000000	      1.81434295	    -28.43781160	     11.73944894	      0.60533013	     -3.26966533	      5.00000000	      2.49492569	     12.02251182	     -4.93470143	      5.00000000	     -3.88425185	     15.67295475	      1.85037675	      1.99975343	    -30.41015664	    -10.43481484	     -5.19729114	      0.00000000	      0.00000000	      0.00000000	      0.00000000	      0.00000000	      0.00000000	      0.00000000	      0.00000000	      0.00000000	     -0.00042092	      0.00000000	      0.00000000	      0.00000000	      0.00000000	      0.00000000	      0.00000000	      0.00000000	      0.00000000	      0.00000000	      0.00000000	      0.00000000	      0.00000000	      0.00000000	      0.00000000	      0.00000000	      0.00000000	      0.00000000	      0.00000000	      0.00000000	      0.00000000	      0.00000000
      0.82500000	     17.18433630	      7.02474989	      1.02088346	     -1.31980047	      0.76009070	      0.90615116	     10.39918671	     -8.50354047	      1.08159271	    -28.44789640	     -5.00000000	      4.01863741	      3.69862639	     -5.00000000	      0.94123466	     -7.04816546	     27.22986498	     -2.00000000	      1.74983007	    -29.21461995	     11.62085373	      1.22016670	     -3.48400586	      5.00000000	      2.54084496	     12.78221502	     -4.99709999	      5.00000000	     -3.00893577	     15.68288472	      1.78060736	      2.00000000	    -31.06835623	    -10.28115894	     -6.13106938	      0.00000000	      0.00000000	      0.00000000	      0.00000000	      0.00000000	      0.00000000	      0.00000000	      0.00000000	      0.00000000	     -0.00042092	      0.00000000	      0.00000000	      0.00000000	      0.00000000	      0.00000000	      0.00000000	      0.00000000	      0.00000000	      0.00000000	      0.00000000	      0.00000000	      0.00000000	      0.00000000	      0.00000000	      0.00000000	      0.00000000	      0.00000000	      0.00000000	      0.00000000	      0.00000000	      0.00000000
      0.83000000	     17.02804398	      7.35252878	      1.00863002	     -1.31384096	      0.75863965	      0.90638243	     10.64992240	     -8.66498448	      1.18460222	    -26.25176600	     -5.00000000	      3.70136764	      3.80764207	     -5.00000000	      1.02527380	     -7.02803056	     27.20965536	     -2.00000000	      1.74110851	    -29.61016516	     11.79229980	      1.20615312	     -3.42947168	      5.00000000	      2.36449131	     12.95812540	     -5.00000000	      5.00000000	     -2.98417967	     15.68597988	      1.77329406	      2.00000000	    -31.08770369	    -10.69627788	     -6.19345625	      0.00000000	      0.00000000	      0.00000000	      0.00000000	      0.00000000	      0.00000000	      0.00000000	      0.00000000	      0.00000000	     -0.00042092	      0.00000000	      0.00000000	      0.00000000	      0.00000000	      0.00000000	      0.00000000	      0.00000000	      0.00000000	      0.00000000	      0.00000000	      0.00000000	      0.00000000	      0.00000000	      0.00000000	      0.00000000	      0.00000000	      0.00000000	      0.00000000	      0.00000000	      0.00000000	      0.00000000
      0.83500000	     16.89944283	      7.67704571	      1.06382835	     -1.30783759	      0.75721500	      0.90642604	     10.79014297	     -8.87631520	      1.26268953	    -23.98110127	     -5.00000000	      3.44236512	      3.76019496	     -4.99005159	      1.09764984	     -6.97248783	     27.18326183	     -1.99748749	      1.72902538	    -30.02058392	     11.96879657	      1.30322131	     -3.43360540	      4.97663712	      2.25198881	     13.16391157	     -5.00000000	      5.00000000	     -2.88936346	     15.69170549	      1.76314550	      1.99940565	    -31.11618170	    -11.02492751	     -6.29080612	      0.00000000	      0.00000000	      0.00000000	      0.00000000	      0.00000000	      0.00000000	      0.00000000	      0.00000000	      0.00000000	     -0.00042092	      0.00000000	      0.00000000	      0.00000000	      0.00000000	      0.00000000	      0.00000000	      0.00000000	      0.00000000	      0.00000000	      0.00000000	      0.00000000	      0.00000000	      0.00000000	      0.00000000	      0.00000000	      0.00000000	      0.00000000	      0.00000000	      0.00000000	      0.00000000	      0.00000000
